<svg width="117" height="37" viewBox="0 0 117 37" fill="none" xmlns="http://www.w3.org/2000/svg">
<path fill-rule="evenodd" clip-rule="evenodd" d="M61.9849 9.52894C61.9849 10.8023 60.9381 11.9019 59.6006 11.9019C58.2631 11.9019 57.2164 10.8601 57.2164 9.52894C57.2164 8.19775 58.205 7.15595 59.6006 7.15595C60.9963 7.2717 61.9849 8.31351 61.9849 9.52894ZM52.2735 14.2749C52.2735 14.5064 52.2735 14.8537 52.2735 14.8537C52.2735 14.8537 51.1686 13.4068 48.7844 13.4068C44.8301 13.4068 41.748 16.4164 41.748 20.5257C41.748 24.635 44.7719 27.6447 48.7844 27.6447C51.2268 27.6447 52.2735 26.1399 52.2735 26.1399V26.7765C52.2735 27.0659 52.5061 27.2974 52.7969 27.2974H55.7045V13.754C55.7045 13.754 53.0295 13.754 52.7969 13.754C52.5061 13.754 52.2735 14.0434 52.2735 14.2749ZM52.2735 22.9566C51.7501 23.7669 50.6452 24.4614 49.3659 24.4614C47.0398 24.4614 45.2953 23.0145 45.2953 20.5836C45.2953 18.1527 47.098 16.7058 49.3659 16.7058C50.6452 16.7058 51.8083 17.4003 52.2735 18.2106V22.9566ZM57.9142 13.754H61.4033V27.2974H57.9142V13.754ZM109.844 13.4068C107.46 13.4068 106.355 14.8537 106.355 14.8537V7.2717H102.866V27.3553C102.866 27.3553 105.541 27.3553 105.773 27.3553C106.064 27.3553 106.297 27.1238 106.297 26.8344V26.1977C106.297 26.1977 107.401 27.7026 109.786 27.7026C113.74 27.7026 116.822 24.6929 116.822 20.5836C116.88 16.4164 113.798 13.4068 109.844 13.4068ZM109.262 24.4035C107.925 24.4035 106.878 23.709 106.355 22.8987V18.037C106.878 17.3424 108.041 16.5322 109.262 16.5322C111.588 16.5322 113.333 17.9791 113.333 20.41C113.333 22.8408 111.588 24.4035 109.262 24.4035ZM101.063 19.3103V27.4132H97.5738V19.7154C97.5738 17.4582 96.876 16.59 94.8988 16.59C93.8521 16.59 92.7472 17.1109 92.0494 17.9212V27.3553H88.5602V13.754H91.2934C91.5841 13.754 91.8167 13.9855 91.8167 14.2749V14.8537C92.8053 13.8119 94.201 13.4068 95.5385 13.4068C97.0504 13.4068 98.3298 13.8119 99.3183 14.6801C100.598 15.7219 101.063 16.9952 101.063 19.3103ZM80.1282 13.4068C77.744 13.4068 76.6391 14.8537 76.6391 14.8537V7.2717H73.15V27.3553C73.15 27.3553 75.825 27.3553 76.0576 27.3553C76.3484 27.3553 76.581 27.1238 76.581 26.8344V26.1977C76.581 26.1977 77.6859 27.7026 80.0701 27.7026C84.0244 27.7026 87.1065 24.6929 87.1065 20.5836C87.1646 16.4164 84.0826 13.4068 80.1282 13.4068ZM79.5467 24.4035C78.2092 24.4035 77.1625 23.709 76.6391 22.8987V18.037C77.1625 17.3424 78.3255 16.5322 79.5467 16.5322C81.8728 16.5322 83.6173 17.9791 83.6173 20.41C83.6173 22.8408 81.8728 24.4035 79.5467 24.4035ZM70.1261 13.4068C71.1728 13.4068 71.6962 13.5804 71.6962 13.5804V16.7637C71.6962 16.7637 68.7886 15.7797 66.9859 17.8633V27.3553H63.4968V13.754C63.4968 13.754 66.1718 13.754 66.4044 13.754C66.6952 13.754 66.9278 13.9855 66.9278 14.2749V14.8537C67.6256 14.1013 69.0794 13.4068 70.1261 13.4068ZM34.0138 26.1399C33.8394 25.7347 33.6649 25.2138 33.4905 24.8666C33.1997 24.2299 32.9089 23.5932 32.6763 23.0145L32.6182 22.9566C30.1176 17.574 27.4427 12.0756 24.5932 6.63505L24.4769 6.40354C24.1862 5.88264 23.8954 5.30386 23.6046 4.72508C23.2557 4.08842 22.9068 3.39389 22.3253 2.75723C21.1623 1.31029 19.4759 0.5 17.7313 0.5C15.9286 0.5 14.3004 1.31029 13.0792 2.64148C12.4976 3.33601 12.0906 3.97267 11.7417 4.6672C11.4509 5.24598 11.1602 5.82476 10.8694 6.34566L10.7531 6.57717C7.9618 11.9598 5.22866 17.4582 2.72813 22.8987L2.66998 22.9566C2.43738 23.5354 2.14662 24.172 1.85586 24.8087C1.6814 25.2138 1.50695 25.619 1.33249 26.082C0.867276 27.4132 0.692821 28.6865 0.925428 29.9598C1.33249 32.6801 3.1352 34.9373 5.63573 35.9212C6.56616 36.3264 7.55474 36.5 8.54332 36.5C8.83408 36.5 9.18299 36.4421 9.47375 36.4421C10.6949 36.3264 11.9161 35.9212 13.0792 35.2267C14.5911 34.4164 15.9868 33.201 17.5569 31.4646C19.127 33.201 20.5807 34.3585 22.0345 35.2267C23.2557 35.9212 24.4769 36.3264 25.64 36.4421C25.9307 36.5 26.2796 36.5 26.5704 36.5C27.559 36.5 28.6057 36.3264 29.478 35.9212C32.0367 34.9373 33.7812 32.6222 34.1883 29.9598C34.5953 28.6865 34.479 27.4711 34.0138 26.1399ZM17.6732 27.992C15.696 25.5611 14.4748 23.246 14.0096 21.2781C13.8351 20.4678 13.777 19.7154 13.8933 19.0788C13.9514 18.5 14.184 17.9791 14.4748 17.574C15.1726 16.59 16.3357 16.0113 17.6732 16.0113C19.0106 16.0113 20.2318 16.59 20.8715 17.574C21.1623 17.9791 21.3949 18.5 21.453 19.0788C21.5693 19.7154 21.5112 20.4678 21.3367 21.2781C20.8715 23.1881 19.5922 25.5032 17.6732 27.992ZM32.0948 29.6704C31.8622 31.5225 30.5829 33.1431 28.7802 33.8955C27.9079 34.2428 26.9775 34.3585 26.047 34.2428C25.1166 34.127 24.2443 33.8376 23.3139 33.3167C22.0345 32.6222 20.6971 31.4646 19.1851 29.8441C21.5693 26.9502 23.0231 24.2299 23.5465 21.8569C23.7791 20.7572 23.8372 19.7154 23.7209 18.7894C23.6046 17.8633 23.2557 17.0531 22.7324 16.3585C21.6275 14.7379 19.7085 13.8119 17.615 13.8119C15.5215 13.8119 13.6025 14.7958 12.4976 16.3585C11.9743 17.0531 11.6835 17.9212 11.5091 18.7894C11.3928 19.7154 11.3928 20.7572 11.6835 21.8569C12.2069 24.2299 13.7188 26.9502 16.0449 29.8441C14.533 31.5225 13.1955 32.6222 11.9161 33.3167C10.9857 33.8376 10.0553 34.127 9.18299 34.2428C8.19441 34.3585 7.26398 34.1849 6.44985 33.8955C4.64715 33.201 3.42596 31.5225 3.1352 29.6704C3.01889 28.7444 3.07705 27.8762 3.48411 26.8344C3.60041 26.4871 3.77487 26.1399 3.94932 25.6768C4.18193 25.0981 4.47269 24.4614 4.76345 23.8826L4.8216 23.8248C7.32213 18.4421 9.99711 12.9437 12.7884 7.61897L12.9047 7.38746C13.1955 6.86656 13.4862 6.28778 13.777 5.709C14.0677 5.13023 14.4167 4.60932 14.7656 4.1463C15.5215 3.27814 16.5683 2.81511 17.6732 2.81511C18.778 2.81511 19.8248 3.27814 20.5807 4.1463C20.9878 4.60932 21.2786 5.13023 21.5693 5.709C21.8601 6.2299 22.1508 6.80868 22.4416 7.38746L22.5579 7.61897C25.291 13.0016 27.966 18.5 30.4666 23.8248V23.8826C30.7573 24.4614 30.9899 25.0981 31.2807 25.6768C31.4551 26.082 31.6296 26.4871 31.7459 26.8344C32.153 27.8183 32.2693 28.7444 32.0948 29.6704Z" fill="#2E3E5C"/>
</svg>
