<svg width="120" height="37" viewBox="0 0 120 37" fill="none" xmlns="http://www.w3.org/2000/svg">
<path fill-rule="evenodd" clip-rule="evenodd" d="M18.1561 18.028C18.0662 17.8976 17.9751 17.7718 17.8849 17.6472C17.3215 16.8691 16.793 16.1393 16.793 14.664V8.93943C16.793 8.73601 16.7943 8.53426 16.7955 8.33431V8.33423C16.8091 6.15589 16.8213 4.19225 15.1929 2.62467C13.7705 1.2673 11.4592 0.795166 9.68119 0.795166C6.18453 0.795166 2.27302 2.09353 1.4433 6.40172C1.38404 6.87385 1.68036 7.10992 1.97669 7.16894L5.53261 7.52304C5.88821 7.52304 6.12527 7.16894 6.18453 6.87385C6.48086 5.39844 7.72543 4.69025 9.1478 4.69025C9.91825 4.69025 10.748 4.98533 11.2221 5.63451C11.6743 6.28497 11.6579 7.1051 11.6425 7.87914V7.87915C11.6397 8.01809 11.637 8.15553 11.637 8.29025V8.76238C11.3448 8.79471 11.0403 8.82593 10.7275 8.85802C8.75602 9.06022 6.45008 9.29673 4.76216 10.0607C2.45081 11.064 0.791382 13.0706 0.791382 16.0804C0.791382 19.8575 3.22126 21.805 6.30306 21.805C8.91074 21.805 10.3331 21.2148 12.3481 19.1493C12.4315 19.27 12.5081 19.3831 12.5809 19.4905C13.0772 20.223 13.3963 20.694 14.4817 21.5689C14.778 21.687 15.1336 21.687 15.3707 21.5099C16.0819 20.8607 17.445 19.6804 18.1561 19.0902C18.4525 18.7952 18.3932 18.3821 18.1561 18.028ZM10.9258 16.4345C10.3331 17.4378 9.44413 18.087 8.37735 18.087C6.95498 18.087 6.12527 17.0247 6.12527 15.4312C6.12527 12.3034 8.91074 11.7722 11.5777 11.7722V12.5394L11.5798 12.5891C11.6382 13.9835 11.6872 15.1514 10.9258 16.4345ZM58.851 8.91703C59.1639 8.88495 59.4683 8.85372 59.7605 8.8214L59.879 8.40828C59.879 8.32856 59.8795 8.24788 59.88 8.1665V8.16632C59.8849 7.34412 59.8902 6.45061 59.4049 5.75254C58.9307 5.10336 58.101 4.80828 57.3306 4.80828C55.9082 4.80828 54.6636 5.51648 54.3673 6.99189C54.308 7.28697 54.071 7.64107 53.7154 7.64107L50.1595 7.28697C49.8631 7.22795 49.5668 6.99189 49.6261 6.51976C50.4558 2.21156 54.3673 0.913199 57.864 0.913199C59.6419 0.913199 61.9533 1.38533 63.3757 2.74271C65.0041 4.31028 64.9919 6.27393 64.9783 8.45226L64.9783 8.45415C64.9771 8.6535 64.9758 8.85465 64.9758 9.05746V14.7821C64.9758 16.2573 65.5042 16.9871 66.0676 17.7652L66.0678 17.7655C66.1579 17.89 66.249 18.0157 66.3389 18.146C66.576 18.4411 66.6353 18.8542 66.3389 19.0902C65.6277 19.6804 64.2646 20.8607 63.5535 21.5099C63.3164 21.687 62.9608 21.687 62.6645 21.5689C61.5791 20.694 61.2599 20.223 60.7636 19.4905C60.6909 19.3831 60.6143 19.27 60.5309 19.1493C58.5159 21.2148 57.0935 21.805 54.4858 21.805C51.404 21.805 48.9742 19.8575 48.9742 16.0804C48.9742 13.1296 50.5743 11.123 52.8857 10.1198C54.5736 9.35574 56.8795 9.11924 58.851 8.91703ZM56.5601 18.087C57.5676 18.087 58.5159 17.4378 59.1085 16.4345C59.7684 15.2299 59.765 14.1269 59.7611 12.8427V12.8422V12.8418C59.7608 12.7421 59.7605 12.6414 59.7605 12.5394V11.7722C57.0935 11.7722 54.308 12.3034 54.308 15.4312C54.308 17.0247 55.1378 18.087 56.5601 18.087ZM25.3865 21.5099H21.7121C21.3565 21.4509 21.0602 21.2148 21.0009 20.8607V2.03451C21.0009 1.68041 21.2972 1.38533 21.7121 1.38533H25.1495C25.5051 1.44435 25.8014 1.68041 25.8014 2.03451V4.5132H25.8606C26.8089 2.15254 28.4683 1.03123 30.7204 1.03123C32.9725 1.03123 34.4541 2.15254 35.4616 4.5132C36.3506 2.15254 38.3657 1.03123 40.5585 1.03123C42.0994 1.03123 43.8181 1.68041 44.8256 3.09681C45.8433 4.46502 45.8124 6.35538 45.7834 8.13274V8.13284V8.13294V8.13304V8.13314C45.7786 8.42558 45.7738 8.71495 45.7738 8.99844V20.8607C45.7738 21.2148 45.4775 21.5099 45.0626 21.5099H41.3882C41.0326 21.5099 40.7363 21.2148 40.7363 20.8607V10.887C40.7363 10.7421 40.7381 10.5627 40.7401 10.3612C40.7498 9.41389 40.7643 7.97864 40.6177 7.34599C40.3807 6.10664 39.551 5.75254 38.4842 5.75254C37.5952 5.75254 36.647 6.34271 36.2914 7.28697C35.9208 8.13037 35.9285 9.49167 35.9344 10.5298C35.9351 10.654 35.9358 10.7735 35.9358 10.887V20.8607C35.9358 21.2148 35.6394 21.5099 35.2246 21.5099H31.5501C31.1945 21.5099 30.8982 21.2148 30.8982 20.8607V10.887C30.8982 10.6651 30.9021 10.4328 30.9061 10.1949V10.1948V10.1947V10.1946V10.1946C30.9402 8.15451 30.9813 5.69353 28.6461 5.69353C26.0867 5.69353 26.0927 8.46556 26.0973 10.6191C26.0975 10.7096 26.0977 10.7989 26.0977 10.887V20.8607C26.0977 21.2148 25.8014 21.5099 25.3865 21.5099ZM82.5776 16.4345C80.4441 15.2542 78.0142 14.9001 75.7029 14.9591L81.985 6.04762C82.5776 5.2214 82.874 4.74926 82.874 4.33615V2.03451C82.874 1.6214 82.5776 1.38533 82.1628 1.38533H70.0726C69.7171 1.38533 69.4207 1.68041 69.4207 2.03451V4.69025C69.4207 5.10336 69.7171 5.33943 70.1319 5.33943H76.414L69.1837 15.6673C68.7688 16.3165 68.7688 17.0837 68.7688 17.4968V20.2116C68.7688 20.6247 69.1837 21.0378 69.5985 20.8017C73.6878 18.6181 78.6069 18.8542 82.3406 20.8017C82.8147 21.0378 83.2296 20.5657 83.2296 20.2116V17.3198C83.1703 17.0837 83.0518 16.6706 82.5776 16.4345ZM69.2429 25.1689C68.5317 25.228 68.4725 24.6378 69.0651 24.2247C72.9766 21.4509 79.4958 22.2771 80.207 23.2804C80.9775 24.1657 79.97 30.6575 76.2955 33.7263C75.7621 34.1984 75.2287 33.9624 75.4658 33.3132L75.5084 33.2072L75.5084 33.2071C76.3584 31.0922 78.1771 26.5665 77.303 25.464C76.4489 24.3866 71.8194 24.8893 69.513 25.1397L69.2429 25.1689ZM49.6261 31.9558C57.2713 31.9558 65.687 30.3624 73.3915 27.1165C74.5768 26.5853 75.5251 27.8247 74.3398 28.7689C67.465 33.7853 57.4491 36.5001 48.8556 36.5001C36.8247 36.5001 25.9792 32.0739 17.7413 24.6968C17.0894 24.1066 17.682 23.2804 18.4525 23.7525C27.3423 28.887 38.3064 31.9558 49.6261 31.9558ZM85.0075 11.4181C85.0075 5.57549 87.9115 1.03123 93.2454 1.03123C98.6978 1.03123 101.602 5.69353 101.661 11.5952C101.661 17.3198 98.4015 21.864 93.2454 21.864C87.9115 21.864 85.0075 17.2017 85.0075 11.4181ZM90.4006 10.9635C90.3995 13.316 90.3972 18.028 93.2454 18.028C96.0902 18.028 96.2087 14.0739 96.268 11.6542C96.268 10.1198 96.2087 8.17221 95.7346 6.69681C95.3197 5.39844 94.49 4.8673 93.3047 4.8673C90.5785 4.8673 90.4007 8.52631 90.4007 10.828L90.4006 10.9635ZM109.247 4.80828C110.255 2.27058 111.677 1.03123 114.225 1.03123C115.826 1.03123 117.426 1.6214 118.552 3.33287C119.5 4.80828 119.5 7.34599 119.5 9.17549V20.9788C119.441 21.3329 119.144 21.5689 118.789 21.5689H115.114C114.759 21.5689 114.522 21.2739 114.462 20.9788V10.7689C114.462 10.6107 114.464 10.4468 114.465 10.2792C114.482 8.25976 114.504 5.69353 112.151 5.69353C111.262 5.69353 110.432 6.28369 110.018 7.16894C109.484 8.29025 109.425 9.47058 109.425 10.7099V20.8017C109.425 21.1558 109.129 21.4509 108.714 21.4509H105.039C104.684 21.4509 104.387 21.1558 104.387 20.8017V2.03451C104.447 1.73943 104.743 1.44435 105.098 1.44435H108.477C108.773 1.44435 109.069 1.68041 109.129 1.97549V4.80828H109.247Z" fill="#2E3E5C"/>
</svg>
