<svg width="111" height="43" viewBox="0 0 111 43" fill="none" xmlns="http://www.w3.org/2000/svg">
<path fill-rule="evenodd" clip-rule="evenodd" d="M108.805 20.8475L108.805 20.8476C108.502 21.985 107.36 26.2716 103.826 26.2716C102.249 26.2716 101.149 25.1105 100.489 23.6954C105.403 22.6069 107.054 18.7608 107.054 16.1484C107.054 13.1005 104.853 11.9757 102.983 11.9757C99.9388 11.9757 95.9412 14.8059 95.9412 20.2847C95.9412 20.7927 95.9779 21.2644 96.0146 21.6998C94.951 21.3733 94.0341 20.829 93.4106 19.8856C94.3275 15.8218 94.1808 11.9394 92.2737 11.9394C91.2101 11.9394 90.2933 13.3182 90.2933 16.3661C90.2933 17.5634 90.6233 18.906 91.2468 20.1033C90.8434 21.9538 89.5231 26.453 87.7993 26.453C85.7641 26.453 86.0451 18.1325 86.1557 14.8564C86.1727 14.3543 86.1856 13.9706 86.1856 13.7536C86.1856 12.4111 82.9215 11.0323 82.2247 11.7217C81.9313 12.012 81.858 13.8262 81.858 16.1484C81.858 18.0714 82.0047 20.321 82.4448 22.4255C82.2247 23.5503 81.2345 26.4893 79.4374 26.4893C77.1405 26.4893 77.6827 19.3688 77.9447 15.9291C78.0006 15.1945 78.0437 14.6279 78.0437 14.3342C78.0437 13.1368 74.9264 12.012 74.1562 12.7377C73.8628 13.028 73.6427 15.1687 73.6427 18.4705C73.6427 19.8493 73.7161 21.3007 73.9361 22.6795C73.6427 24.1308 72.4691 26.4893 70.5987 26.4893C67.604 26.4893 68.9006 15.1198 69.7083 8.03769L69.7185 7.9482C70.1952 7.87564 70.7085 7.80309 71.2218 7.73054L71.2222 7.73049C71.3276 7.71891 71.4349 7.70662 71.543 7.69424C72.7898 7.55151 74.1562 7.39509 74.1562 8.12962C74.1562 9.9801 75.4031 10.5606 76.32 10.5606C77.3469 10.5606 78.2271 9.76239 78.2271 8.23847C78.2271 6.75082 76.9068 5.33575 74.5963 5.33575C73.0559 5.33575 71.4789 5.51717 69.9385 5.77116C69.968 5.45032 69.9975 5.15033 70.0249 4.87187C70.0996 4.11112 70.1586 3.51113 70.1586 3.08614C70.1586 1.52593 66.8945 0.0020059 66.2343 0.655117C66.1243 0.763969 65.6842 3.23128 65.2808 6.67826C63.0069 7.11366 60.7697 7.51279 58.5326 7.51279C57.7624 7.51279 57.8724 9.83496 60.4763 9.83496C61.98 9.83496 63.4837 9.50841 65.0241 9.10928C64.804 11.504 64.6573 14.1528 64.6573 16.6926C64.6573 18.9785 64.804 20.9741 65.0974 22.6795C64.804 23.9494 63.8871 26.5256 62.1634 26.5256C59.4173 26.5256 60.0474 18.715 60.3367 15.1289C60.3951 14.4046 60.4397 13.8527 60.4397 13.5722C60.4397 12.774 57.4323 11.0323 56.8088 11.6492C56.7355 11.7217 56.6621 12.2297 56.6621 12.2297C56.6621 12.2297 56.2587 11.9394 55.1584 11.9394C50.9408 11.9394 47.5667 17.0918 47.5667 21.7724C47.5667 21.9901 47.5667 22.2078 47.6034 22.4255C46.9432 23.9494 45.2928 26.5619 42.3221 26.5619C40.8185 26.5619 39.7549 25.5822 39.0214 24.3123C43.6424 23.006 45.4395 19.0148 45.4395 16.4386C45.4395 13.4271 42.8723 11.9394 41.0018 11.9394C37.7377 11.9394 34.1802 15.1687 34.1802 20.6113C34.1802 22.2078 34.4736 23.5503 34.9871 24.7114C34.4003 25.6185 33.5201 26.5256 32.3098 26.5256C29.5445 26.5256 30.5729 18.9946 31.034 15.6179L31.034 15.6178C31.1355 14.8745 31.2096 14.3325 31.2096 14.1165C31.2096 13.8262 31.2096 13.2457 30.6594 12.8828C30.1661 12.5232 27.9813 12.1635 26.2659 11.8811C25.5585 11.7647 24.9309 11.6613 24.5347 11.5766V10.7783C24.5347 8.60131 23.1777 8.12962 22.2608 8.12962C20.7571 8.12962 20.4637 9.79868 20.4637 10.1978C20.4637 10.5969 20.5738 12.012 22.0774 12.8465C22.0774 16.8741 19.4735 26.4167 12.5052 26.4167C7.224 26.4167 5.31689 21.0467 5.31689 17.0555C5.31689 10.3067 9.31448 5.11805 11.8817 5.11805C13.4909 5.11805 13.5866 6.66044 13.6826 8.20718C13.7791 9.76269 13.8759 11.3226 15.5126 11.3226C17.7864 11.3226 18.1165 9.14557 18.1165 8.12962C18.1165 6.24285 16.1361 2.7233 11.8817 2.7233C5.13351 2.7233 0.145691 10.8509 0.145691 17.8174C0.145691 24.53 4.80344 29.9 11.3316 29.9C21.4173 29.9 23.9112 19.3051 24.4247 13.3908C24.659 13.4552 25.0088 13.5333 25.3692 13.6138C26.0241 13.76 26.7139 13.914 26.8085 14.0076C26.9255 14.1233 26.8293 14.9316 26.69 16.1034L26.69 16.1034V16.1034V16.1034C26.5234 17.504 26.2951 19.4239 26.2951 21.3007C26.2951 25.6185 27.7254 29.1018 31.1729 29.1018C33.3367 29.1018 35.0605 27.5415 35.9773 26.3442C37.371 28.1221 39.3881 29.0292 41.3686 29.0292C44.7794 29.0292 47.0166 26.9247 48.1168 25.2557C49.0704 27.7955 51.0141 29.0292 52.7746 29.0292C55.2318 29.0292 56.6988 25.7636 56.7721 25.2557C57.5057 27.5415 59.2294 29.1018 61.1732 29.1018C63.6304 29.1018 65.1341 26.8884 65.7209 25.5096C66.6011 27.8318 67.9948 29.1018 70.0119 29.1018C72.3224 29.1018 73.8261 27.0336 74.5229 25.6548C75.2564 27.6867 76.4667 29.1018 78.3738 29.1018C80.9411 29.1018 82.5548 26.4893 83.0682 25.1831C83.9118 27.4327 85.2321 29.0292 87.2859 29.0292C89.5597 29.0292 91.5402 25.7999 92.7138 22.1715C93.6674 23.0786 94.9143 23.7317 96.418 23.9131C97.5549 27.1787 100.232 28.9929 103.056 28.9929C107.971 28.9929 109.878 23.9857 110.098 22.8246C110.391 21.6273 109.254 20.2122 108.888 20.575C108.874 20.5885 108.848 20.6864 108.805 20.8475ZM40.8551 13.4996C42.9089 13.4996 41.6987 21.2644 38.3245 22.5344C38.0678 21.6998 37.9578 20.9016 37.9578 20.2847C37.9211 17.6723 38.9847 13.4996 40.8551 13.4996ZM53.3614 25.8362C49.7672 25.8362 52.2978 13.5359 55.1584 13.5359C57.0656 13.5359 56.7721 25.8362 53.3614 25.8362ZM102.506 13.5722C104.487 13.5722 103.35 21.591 99.9021 22.0989C99.7188 21.4458 99.6454 20.7927 99.6454 20.2847C99.6454 17.6723 100.636 13.5722 102.506 13.5722ZM34.3614 34.8H33.1681C33.0935 34.8 33.0189 34.8377 32.9816 34.9132L30.8561 38.499C30.7442 38.6123 30.6696 38.6123 30.595 38.499L28.5441 34.9132C28.5068 34.8377 28.4322 34.8 28.3576 34.8H27.2016C27.0524 34.8 26.9406 34.9132 26.9406 35.0642V42.2358C26.9406 42.3868 27.0524 42.5 27.2016 42.5H28.3576C28.5068 42.5 28.6186 42.3868 28.6186 42.2358V38.5368C28.6186 38.3103 28.8424 38.1971 28.9915 38.3858L30.595 41.0279C30.7069 41.1789 30.8933 41.1789 30.9679 41.0279L32.6087 38.3858C32.7579 38.1971 32.9816 38.3103 32.9816 38.5368V42.2358C32.9816 42.3868 33.0935 42.5 33.2426 42.5H34.4359C34.5851 42.5 34.697 42.3868 34.697 42.2358V35.0642C34.6224 34.9132 34.5105 34.8 34.3614 34.8ZM42.7344 34.8C42.843 34.8 42.9154 34.8759 42.9516 34.9517L45.9563 42.1586C46.0288 42.3103 45.9201 42.5 45.7391 42.5H44.5445C44.4359 42.5 44.3635 42.4241 44.3273 42.3483L43.8566 41.1345C43.8204 41.0586 43.748 40.9828 43.6394 40.9828H40.5622C40.4536 40.9828 40.3812 41.0586 40.345 41.1345L39.9106 42.3483C39.8744 42.4241 39.802 42.5 39.6934 42.5H38.4625C38.2815 42.5 38.1729 42.3103 38.2453 42.1586L41.2863 34.9517C41.3225 34.8759 41.3949 34.8 41.5035 34.8H42.7344ZM41.3587 39.5034H42.9154C43.0602 39.5034 43.205 39.3138 43.1688 39.1621L42.3723 37.0759C42.2999 36.8862 42.0103 36.8862 41.9379 37.0759L41.1415 39.1621C41.0691 39.3138 41.1777 39.5034 41.3587 39.5034ZM64.5261 38.0083C64.4549 38.0838 64.4549 38.2348 64.5261 38.3103L67.0902 42.1225C67.1971 42.2735 67.0902 42.5 66.9122 42.5H65.5589C65.4877 42.5 65.4164 42.4623 65.3808 42.3868L63.6002 39.6691C63.5289 39.5559 63.3509 39.5559 63.244 39.6691L62.3181 40.8392C62.3181 40.8581 62.3092 40.8864 62.3003 40.9147C62.2914 40.943 62.2825 40.9713 62.2825 40.9902V42.2358C62.2825 42.349 62.2112 42.4623 62.0688 42.4623H61.0004C60.8936 42.4623 60.7867 42.3868 60.7867 42.2358V35.0265C60.7867 34.9132 60.8579 34.8 61.0004 34.8H62.0688C62.1756 34.8 62.2825 34.8755 62.2825 35.0265V37.9706C62.2825 38.1971 62.5318 38.3103 62.6742 38.1216L65.1315 34.8755C65.1671 34.8377 65.2384 34.8 65.3096 34.8H66.5204C66.6985 34.8 66.8053 35.0265 66.6985 35.1775L64.5261 38.0083ZM76.7428 40.9448H73.2299C73.0835 40.9448 72.9737 40.831 72.9737 40.6793V39.5414C72.9737 39.3897 73.0835 39.2759 73.2299 39.2759H75.5718C75.7182 39.2759 75.828 39.1621 75.828 39.0103V38.1759C75.828 38.0241 75.7182 37.9103 75.5718 37.9103H73.2299C73.0835 37.9103 72.9737 37.7966 72.9737 37.6448V36.5448C72.9737 36.3931 73.0835 36.2793 73.2299 36.2793H76.4867C76.633 36.2793 76.7428 36.1655 76.7428 36.0138V35.0655C76.7428 34.9138 76.633 34.8 76.4867 34.8H71.6198C71.4734 34.8 71.3636 34.9138 71.3636 35.0655V42.2345C71.3636 42.3862 71.4734 42.5 71.6198 42.5H76.7428C76.8892 42.5 76.999 42.3862 76.999 42.2345V41.2862C77.0356 41.0586 76.8892 40.9448 76.7428 40.9448ZM80.7496 34.8H86.7066C86.8162 34.8 86.9259 34.9045 86.8528 35.009V35.9144C86.8528 36.0189 86.7797 36.1234 86.6335 36.1234H84.6966C84.5869 36.1234 84.4773 36.193 84.4773 36.3323V41.591C84.4773 41.6955 84.4042 41.8 84.258 41.8H83.1251C83.0154 41.8 82.9058 41.7303 82.9058 41.591V36.3323C82.9058 36.2279 82.8327 36.1234 82.6865 36.1234H80.7496C80.6399 36.1234 80.5303 36.0537 80.5303 35.9144V35.009C80.5303 34.9045 80.6034 34.8 80.7496 34.8ZM52.6473 34.8C54.6669 34.8 55.8508 36.0078 55.8508 37.6686C55.8508 38.6877 55.433 39.3672 54.8758 39.8578C54.8062 39.9333 54.7714 40.0466 54.8062 40.1598L55.7464 42.1603C55.816 42.3113 55.7115 42.5 55.5374 42.5H54.3187C54.2142 42.5 54.1446 42.4245 54.1098 42.349L53.3089 40.6127C53.2523 40.4901 53.1957 40.492 53.0458 40.497C53.0112 40.4982 52.9716 40.4995 52.9258 40.4995H52.7866H51.9509C51.7419 40.4995 51.7071 40.5373 51.7071 40.726V42.2358C51.7071 42.349 51.6375 42.4623 51.4982 42.4623H50.4187C50.3143 42.4623 50.2098 42.3868 50.2098 42.2358V35.0642C50.2098 34.951 50.2794 34.8377 50.4187 34.8377C51.1848 34.8 51.916 34.8 52.6473 34.8ZM52.4732 39.0358C52.566 39.0316 52.6589 39.0275 52.7517 39.0275C53.8312 38.952 54.3187 38.3858 54.3187 37.6686C54.3187 36.8005 53.6223 36.3475 52.7169 36.3098C52.4035 36.2721 52.1598 36.2721 51.916 36.2721C51.8116 36.2721 51.7071 36.3475 51.7071 36.4985V38.801C51.7071 38.9142 51.7767 39.0275 51.916 39.0275C52.1017 39.0526 52.2875 39.0442 52.4732 39.0358Z" fill="#2E3E5C"/>
</svg>
