<svg width="110" height="37" viewBox="0 0 110 37" fill="none" xmlns="http://www.w3.org/2000/svg">
<path fill-rule="evenodd" clip-rule="evenodd" d="M14.5572 13.1859H27.3107C27.3107 13.1859 27.5374 14.1002 27.5374 15.7002C27.5374 23.3001 22.0959 28.3858 14.6706 28.3858C6.22491 28.3858 0.5 21.4716 0.5 14.3859C0.5 7.12887 6.565 0.443221 14.4438 0.500364C20.6222 0.500364 24.0231 4.27175 24.0231 4.27175L21.4158 7.01458C21.4158 7.01458 18.9217 4.27175 14.6139 4.27175C9.05902 4.27175 4.63781 8.72885 4.63781 14.5002C4.63781 20.3859 9.28575 24.6144 14.6139 24.6144C18.7517 24.6144 23.1729 22.2716 23.6264 16.9573H14.5572V13.1859ZM37.6836 10.386C32.4688 10.386 28.7278 14.5002 28.7278 19.3002C28.7278 24.2144 32.3554 28.3858 37.7969 28.3858C42.7283 28.3858 46.696 24.6715 46.696 19.4145C46.6394 13.4717 41.9914 10.386 37.6836 10.386ZM37.7402 13.9859C40.291 13.9859 42.7283 16.1002 42.7283 19.4145C42.7283 22.7287 40.3476 24.843 37.7402 24.843C34.9061 24.843 32.6955 22.5573 32.6955 19.3573C32.6388 16.2716 34.8495 13.9859 37.7402 13.9859ZM48.2265 19.3002C48.2265 14.5002 51.9675 10.386 57.1823 10.386C61.4901 10.386 66.1381 13.4717 66.1947 19.4145C66.1947 24.6715 62.227 28.3858 57.2956 28.3858C51.8541 28.3858 48.2265 24.2144 48.2265 19.3002ZM62.227 19.4145C62.227 16.1002 59.7897 13.9859 57.239 13.9859C54.3482 13.9859 52.1375 16.2716 52.1942 19.3573C52.1942 22.5573 54.4048 24.843 57.239 24.843C59.8463 24.843 62.227 22.7287 62.227 19.4145ZM76.2842 10.4431C71.4662 10.4431 67.7252 14.6716 67.7252 19.4145C67.7252 24.7858 72.0897 28.4429 76.1708 28.4429C78.7215 28.4429 80.0252 27.4715 81.1022 26.2715V28.0429C81.1022 31.1286 79.2317 33.0143 76.3976 33.0143C73.6768 33.0143 72.3164 30.9572 71.8063 29.8144L68.3487 31.2429C69.539 33.8143 71.9763 36.5 76.3409 36.5C81.1022 36.5 84.7298 33.4715 84.7298 27.1287V10.9574H80.9888V12.5002C79.9685 11.2431 78.3814 10.4431 76.2842 10.4431ZM76.6243 13.9859C78.9483 13.9859 81.3856 16.0431 81.3856 19.4716C81.3856 23.0144 79.0049 24.9001 76.5676 24.9001C74.0169 24.9001 71.6362 22.7859 71.6362 19.5287C71.6929 15.9859 74.1303 13.9859 76.6243 13.9859ZM93.1755 19.3573C93.1755 13.9859 96.9732 10.386 101.508 10.386C105.022 10.386 107.686 12.786 108.876 15.5288L109.5 17.0145L97.54 22.043C98.2769 23.4144 99.4106 24.7858 101.905 24.7858C104.115 24.7858 105.476 23.5858 106.269 22.3287L109.387 24.443C108.026 26.2715 105.646 28.3858 101.905 28.3858C97.4267 28.3858 93.1755 25.0144 93.1755 19.3573ZM104.965 15.8145C104.399 14.7288 103.265 13.8717 101.621 13.8717C99.0705 13.8717 96.5764 16.5573 97.0299 19.1859L104.965 15.8145ZM91.4184 27.8715H87.5073V1.3575H91.4184V27.8715Z" fill="#2E3E5C"/>
</svg>
