<svg width="97" height="94" viewBox="0 0 97 94" fill="none" xmlns="http://www.w3.org/2000/svg">
<ellipse cx="2.50375" cy="3.16656" rx="2.5" ry="2.62469" transform="rotate(14.4844 2.50375 3.16656)" fill="#2D3250"/>
<ellipse cx="38.7053" cy="12.5184" rx="2.5" ry="2.62469" transform="rotate(14.4844 38.7053 12.5184)" fill="#2D3250"/>
<ellipse cx="27.7542" cy="54.9112" rx="2.5" ry="2.62469" transform="rotate(14.4844 27.7542 54.9112)" fill="#2D3250"/>
<ellipse cx="74.9069" cy="21.8703" rx="2.5" ry="2.62469" transform="rotate(14.4844 74.9069 21.8703)" fill="#2D3250"/>
<ellipse cx="63.9558" cy="64.2631" rx="2.5" ry="2.62469" transform="rotate(14.4844 63.9558 64.2631)" fill="#2D3250"/>
<ellipse cx="-2.97184" cy="24.3628" rx="2.5" ry="2.62469" transform="rotate(14.4844 -2.97184 24.3628)" fill="#2D3250"/>
<ellipse cx="33.2298" cy="33.7147" rx="2.5" ry="2.62469" transform="rotate(14.4844 33.2298 33.7147)" fill="#2D3250"/>
<ellipse cx="22.2786" cy="76.1072" rx="2.5" ry="2.62469" transform="rotate(14.4844 22.2786 76.1072)" fill="#2D3250"/>
<ellipse cx="69.4314" cy="43.0666" rx="2.5" ry="2.62469" transform="rotate(14.4844 69.4314 43.0666)" fill="#2D3250"/>
<ellipse cx="58.4802" cy="85.4591" rx="2.5" ry="2.62469" transform="rotate(14.4844 58.4802 85.4591)" fill="#2D3250"/>
<ellipse cx="20.6046" cy="7.84252" rx="2.5" ry="2.62469" transform="rotate(14.4844 20.6046 7.84252)" fill="#2D3250"/>
<ellipse cx="9.65334" cy="50.2353" rx="2.5" ry="2.62469" transform="rotate(14.4844 9.65334 50.2353)" fill="#2D3250"/>
<ellipse cx="56.8062" cy="17.1943" rx="2.5" ry="2.62469" transform="rotate(14.4844 56.8062 17.1943)" fill="#2D3250"/>
<ellipse cx="45.8549" cy="59.5872" rx="2.5" ry="2.62469" transform="rotate(14.4844 45.8549 59.5872)" fill="#2D3250"/>
<ellipse cx="93.0078" cy="26.5462" rx="2.5" ry="2.62469" transform="rotate(14.4844 93.0078 26.5462)" fill="#2D3250"/>
<ellipse cx="82.0565" cy="68.939" rx="2.5" ry="2.62469" transform="rotate(14.4844 82.0565 68.939)" fill="#2D3250"/>
<ellipse cx="15.129" cy="29.0388" rx="2.5" ry="2.62469" transform="rotate(14.4844 15.129 29.0388)" fill="#2D3250"/>
<ellipse cx="4.17782" cy="71.4313" rx="2.5" ry="2.62469" transform="rotate(14.4844 4.17782 71.4313)" fill="#2D3250"/>
<ellipse cx="51.3306" cy="38.3906" rx="2.5" ry="2.62469" transform="rotate(14.4844 51.3306 38.3906)" fill="#2D3250"/>
<ellipse cx="40.3794" cy="80.7831" rx="2.5" ry="2.62469" transform="rotate(14.4844 40.3794 80.7831)" fill="#2D3250"/>
<ellipse cx="87.5322" cy="47.7425" rx="2.5" ry="2.62469" transform="rotate(14.4844 87.5322 47.7425)" fill="#2D3250"/>
<ellipse cx="76.581" cy="90.135" rx="2.5" ry="2.62469" transform="rotate(14.4844 76.581 90.135)" fill="#2D3250"/>
</svg>
