<svg width="40" height="40" viewBox="0 0 40 40" fill="none" xmlns="http://www.w3.org/2000/svg">
<path d="M15.625 5.625C15.625 4.75971 15.8816 3.91385 16.3623 3.19438C16.8431 2.47492 17.5263 1.91416 18.3258 1.58303C19.1252 1.2519 20.0049 1.16526 20.8535 1.33407C21.7022 1.50288 22.4817 1.91956 23.0936 2.53141C23.7055 3.14326 24.1221 3.92281 24.2909 4.77148C24.4598 5.62015 24.3731 6.49982 24.042 7.29924C23.7108 8.09867 23.1501 8.78195 22.4306 9.26268C21.7112 9.74341 20.8653 10 20 10C18.8397 10 17.7269 9.53907 16.9064 8.71859C16.0859 7.89812 15.625 6.78532 15.625 5.625ZM33.6594 21.9969L26.5891 13.9813C26.1785 13.5157 25.6736 13.1429 25.1079 12.8875C24.5421 12.6321 23.9285 12.5 23.3078 12.5H16.6922C16.0715 12.5 15.4579 12.6321 14.8922 12.8875C14.3264 13.1429 13.8215 13.5157 13.4109 13.9813L6.34063 21.9969C5.88153 22.4666 5.62574 23.0982 5.62856 23.755C5.63138 24.4118 5.89258 25.0412 6.3557 25.507C6.81882 25.9727 7.44664 26.2376 8.10344 26.2441C8.76025 26.2507 9.39326 25.9986 9.86563 25.5422L13.9063 22.2969L10.8281 33.9969C10.5603 34.5981 10.5404 35.2806 10.7727 35.8964C11.0049 36.5122 11.4707 37.0116 12.0688 37.2862C12.6669 37.5607 13.3492 37.5884 13.9676 37.3631C14.5859 37.1378 15.0905 36.6778 15.3719 36.0828L20 28.125L24.6219 36.0938C24.9032 36.6887 25.4078 37.1488 26.0262 37.3741C26.6446 37.5993 27.3269 37.5717 27.925 37.2971C28.5231 37.0225 28.9888 36.5231 29.2211 35.9073C29.4534 35.2916 29.4334 34.609 29.1656 34.0078L26.0938 22.2969L30.1406 25.5422C30.613 25.9986 31.246 26.2507 31.9028 26.2441C32.5596 26.2376 33.1875 25.9727 33.6506 25.507C34.1137 25.0412 34.3749 24.4118 34.3777 23.755C34.3805 23.0982 34.1247 22.4666 33.6656 21.9969H33.6594Z" fill="white"/>
</svg>
