<svg width="41" height="42" viewBox="0 0 41 42" fill="none" xmlns="http://www.w3.org/2000/svg">
<rect y="0.5" width="41" height="41" rx="8" fill="#FAFAFA"/>
<path d="M31 31.5L24 24.5M26.3333 18.6667C26.3333 19.7391 26.1221 20.8011 25.7117 21.7919C25.3013 22.7827 24.6997 23.683 23.9414 24.4414C23.183 25.1997 22.2827 25.8013 21.2919 26.2117C20.3011 26.6221 19.2391 26.8333 18.1667 26.8333C17.0942 26.8333 16.0322 26.6221 15.0414 26.2117C14.0506 25.8013 13.1503 25.1997 12.392 24.4414C11.6336 23.683 11.0321 22.7827 10.6217 21.7919C10.2112 20.8011 10 19.7391 10 18.6667C10 16.5007 10.8604 14.4235 12.392 12.892C13.9235 11.3604 16.0007 10.5 18.1667 10.5C20.3326 10.5 22.4098 11.3604 23.9414 12.892C25.4729 14.4235 26.3333 16.5007 26.3333 18.6667Z" stroke="black" stroke-width="2" stroke-linecap="round" stroke-linejoin="round"/>
</svg>
