<svg width="127" height="37" viewBox="0 0 127 37" fill="none" xmlns="http://www.w3.org/2000/svg">
<path fill-rule="evenodd" clip-rule="evenodd" d="M31.3365 33.2798L31.3364 33.2789C31.2724 32.8443 27.5491 7.55967 27.4865 7.37215C27.4865 7.18301 27.2972 7.11997 27.1709 7.11997C27.0447 7.11997 24.3302 6.93082 24.3302 6.93082L22.2471 4.85026C22.2345 4.8377 22.2208 4.82624 22.2061 4.81581C22.1382 4.76672 22.0369 4.72517 21.9351 4.72419C21.8027 4.70749 21.6653 4.71531 21.5717 4.72064C21.5378 4.72257 21.5097 4.72417 21.4895 4.72417C21.4895 4.72417 21.0477 4.85026 20.4164 5.0394C19.7851 3.21103 18.712 1.5718 16.7551 1.5718H16.6288C16.0607 0.878284 15.3663 0.5 14.7982 0.5C10.2531 0.5 8.10678 6.17426 7.41239 9.07443C5.64486 9.64186 4.38233 10.0201 4.25608 10.0201L4.19298 10.0411C3.30629 10.3359 3.2432 10.3568 3.11981 11.2811C2.99356 11.9116 0.468506 31.8345 0.468506 31.8345L20.42 35.5432L20.4164 35.6173L31.3372 33.2846L31.3365 33.2798ZM19.3433 5.41769C19.0217 5.53814 18.6745 5.63302 18.3017 5.73489C18.0891 5.79299 17.8681 5.85337 17.6388 5.92207V5.54378C17.6388 4.40893 17.4495 3.52627 17.197 2.83275C18.2701 2.8958 18.9645 4.0937 19.3433 5.41769ZM16.5026 6.11121C16.5026 4.78722 16.3132 3.77846 16.0607 3.08494C14.9244 3.52627 13.6619 4.78722 13.0306 7.37215C14.23 6.99387 15.4294 6.61559 16.5026 6.30035V6.11121ZM14.6719 1.82399C14.8613 1.82399 15.0507 1.88704 15.24 2.01313C13.7881 2.70666 12.21 4.40893 11.5787 7.87653C10.8397 8.12256 10.1007 8.33019 9.3917 8.52938L9.39123 8.52951L9.3902 8.5298L9.39006 8.52984C9.19118 8.58572 8.99466 8.64093 8.80117 8.69615C9.62181 6.04816 11.4525 1.82399 14.6719 1.82399ZM16.8182 13.1095L15.4926 17.0814C15.4926 17.0814 14.2932 16.451 12.9044 16.451C10.8212 16.451 10.695 17.775 10.695 18.0902C10.695 18.8157 11.4405 19.3626 12.3399 20.0223C13.707 21.025 15.4294 22.2884 15.4294 24.8363C15.4294 28.1778 13.2831 30.3214 10.4425 30.3214C7.03364 30.3214 5.2661 28.1778 5.2661 28.1778L6.14987 25.1515C6.14987 25.1515 7.98053 26.7277 9.49556 26.7277C10.5056 26.7277 10.8843 25.9711 10.8843 25.3406C10.8843 24.2886 10.1297 23.6864 9.28312 23.0108C8.20179 22.1479 6.97051 21.1653 6.97051 18.9729C6.97051 15.6944 9.30618 12.542 14.1038 12.542C15.9344 12.542 16.8182 13.1095 16.8182 13.1095ZM108.73 14.5595H111.697L111.129 17.6489H108.162L105.889 29.5648H101.597L103.869 17.7119H101.849L102.481 14.4965H104.501L104.627 13.803C104.942 12.0377 105.637 10.2723 107.089 9.01138C108.225 8.00263 109.74 7.5613 111.255 7.5613C112.833 7.5613 113.591 7.93958 113.591 7.93958L112.77 11.2811C112.77 11.2811 112.139 11.0919 111.381 11.0919C109.993 11.0919 109.109 12.4159 108.856 13.866L108.73 14.5595ZM59.3022 14.2443C57.4084 14.2443 55.9565 15.127 54.7571 16.514H54.694L56.3352 7.87653H52.0427L47.8763 29.6909H52.1689L53.6208 22.2513C54.1889 19.4142 55.6409 17.7119 56.9665 17.7119C57.9134 17.7119 58.2922 18.3424 58.2922 19.2881C58.2922 19.8555 58.229 20.6121 58.1028 21.1795L56.4615 29.6909H60.8172L62.5216 20.8643C62.711 19.9186 62.8372 18.8468 62.8372 18.0902C62.7741 15.6944 61.5116 14.2443 59.3022 14.2443ZM44.0256 20.549C42.9525 19.9816 42.3843 19.4772 42.3843 18.7837C42.3843 17.9011 43.1419 17.3336 44.4044 17.3336C45.7932 17.3336 47.0557 17.9011 47.0557 17.9011L48.0657 14.8748C48.0657 14.8748 47.1819 14.1813 44.4675 14.1813C40.7431 14.1813 38.1549 16.3249 38.1549 19.2881C38.1549 20.9904 39.3543 22.3144 40.9956 23.197C42.3212 23.9536 42.7631 24.458 42.7631 25.2145C42.7631 26.0342 42.1318 26.6646 40.8693 26.6646C39.0386 26.6646 37.3974 25.7189 37.3974 25.7189L36.3242 28.7452C36.3242 28.7452 37.9024 29.817 40.5537 29.817C44.4044 29.817 47.1188 27.9256 47.1188 24.521C47.0557 22.8187 45.6669 21.5578 44.0256 20.549ZM63.9104 24.0166C63.9104 18.9098 67.3192 14.2443 72.4324 14.2443C76.4094 14.2443 78.2401 17.0814 78.2401 20.2338C78.2401 25.4667 74.8312 30.0061 69.7811 30.0061C65.9304 30.0061 63.9104 27.3581 63.9104 24.0166ZM70.3493 26.6646C68.8974 26.6646 68.2661 25.4037 68.2661 23.8905C68.2661 21.4317 69.5286 17.4597 71.8643 17.4597C73.3793 17.4597 73.8843 18.7837 73.8843 20.0447C73.8212 22.6296 72.5587 26.6646 70.3493 26.6646ZM84.6158 16.7662C84.6158 16.7662 86.2571 14.2443 89.1609 14.2443C92.2541 14.2443 93.5166 16.7662 93.5166 19.6664C93.5166 24.8993 90.234 30.0061 85.2471 30.0061C83.6058 30.0061 82.722 29.4387 82.722 29.4387H82.6589L81.4595 35.7434H77.23L80.1338 20.1708C80.5126 18.4054 80.8282 16.0727 81.0176 14.4965H84.8052L84.5527 16.7662H84.6158ZM85.0577 26.6646C83.9214 26.6646 83.2901 26.0342 83.2901 26.0342L83.9845 22.0622C84.4895 19.4142 85.8783 17.6489 87.3302 17.6489C88.6559 17.6489 89.0346 18.8468 89.0346 19.9816C89.0978 22.8187 87.4565 26.6646 85.0577 26.6646ZM97.1779 10.5245C97.1779 9.13748 98.2511 8.06567 99.6398 8.06567C100.902 8.06567 101.786 9.01138 101.786 10.2093C101.723 11.7855 100.587 12.6681 99.2611 12.6681H99.198C97.9986 12.6681 97.1779 11.7855 97.1779 10.5245ZM93.6429 29.5648H97.9354L100.839 14.4335H96.5467L93.6429 29.5648ZM121.923 14.5595C121.923 14.5595 119.272 21.3056 118.073 24.9623H118.01C117.946 23.7644 116.936 14.5595 116.936 14.5595H112.454L115.043 28.4299C115.106 28.7452 115.043 28.9343 114.98 29.1235C114.475 30.0692 113.654 31.0149 112.644 31.7084C111.823 32.2758 110.939 32.6541 110.245 32.9063L111.444 36.5C112.328 36.3109 114.096 35.6173 115.611 34.1673C117.568 32.3389 119.335 29.5018 121.229 25.7189L126.469 14.5595H121.923Z" fill="#2E3E5C"/>
</svg>
